<?xml version="1.0" standalone="no"?>
<!DOCTYPE svg PUBLIC "-//W3C//DTD SVG 20010904//EN"
 "http://www.w3.org/TR/2001/REC-SVG-20010904/DTD/svg10.dtd">
<svg version="1.0" xmlns="http://www.w3.org/2000/svg"
 width="600.000000pt" height="641.000000pt" viewBox="0 0 600.000000 641.000000"
 preserveAspectRatio="xMidYMid meet">
<metadata>
Created by potrace 1.15, written by Peter Selinger 2001-2017
</metadata>
<g transform="translate(0.000000,641.000000) scale(0.100000,-0.100000)"
fill="#000000" stroke="none">
<path d="M2790 5954 c-163 -19 -296 -41 -415 -71 -904 -226 -1623 -944 -1848
-1848 -59 -237 -72 -348 -72 -630 0 -282 13 -393 72 -630 46 -183 98 -326 188
-510 123 -254 251 -437 443 -636 136 -141 239 -230 387 -334 322 -225 686
-369 1090 -431 166 -26 571 -26 730 -1 598 95 1068 335 1475 753 586 602 838
1433 685 2259 -130 701 -550 1317 -1160 1700 -114 72 -341 183 -469 230 -129
48 -371 108 -516 130 -109 16 -502 29 -590 19z m581 -1125 c32 -15 74 -45 95
-66 22 -22 92 -128 157 -236 l119 -197 478 0 c533 0 533 0 602 -67 72 -70 69
-14 66 -1139 l-3 -1011 -30 -48 c-39 -62 -95 -102 -164 -115 -66 -12 -3315
-13 -3380 -1 -62 12 -120 57 -150 116 -26 49 -26 54 -29 307 l-4 258 312 0
c330 0 355 3 380 49 20 39 12 98 -19 133 l-29 33 -321 3 -321 3 0 94 0 95 305
0 c381 0 395 4 395 114 0 33 -6 52 -24 73 l-24 28 -326 3 -326 3 0 94 0 95
310 0 c258 0 316 3 340 15 38 20 50 43 50 97 0 48 -23 82 -67 99 -13 5 -161 9
-329 9 l-304 0 0 224 c0 246 8 312 45 368 41 61 99 88 204 95 l91 6 6 36 c14
76 57 125 120 137 24 4 34 12 34 25 0 10 11 31 24 46 23 27 28 28 113 28 102
0 140 -17 149 -64 5 -22 13 -30 36 -35 40 -8 85 -41 103 -75 7 -15 17 -51 21
-80 l7 -52 81 3 81 3 118 195 c125 206 156 247 224 287 64 37 112 42 433 40
l295 -2 56 -26z"/>
<path d="M4484 4151 c-64 -29 -89 -72 -89 -153 0 -71 14 -102 67 -141 33 -24
114 -33 161 -18 46 15 93 69 107 121 28 104 -63 210 -180 210 -14 0 -43 -9
-66 -19z"/>
<path d="M2810 4076 c-295 -68 -525 -245 -652 -501 -79 -159 -102 -273 -95
-472 5 -154 17 -210 70 -340 60 -146 199 -314 337 -404 41 -27 84 -56 95 -64
32 -24 164 -72 247 -89 96 -20 272 -21 370 -2 194 37 369 137 523 298 136 141
214 298 245 491 19 116 8 300 -24 410 -93 315 -335 558 -653 653 -76 23 -110
27 -248 30 -105 2 -179 -1 -215 -10z m405 -250 c117 -39 209 -98 301 -191 66
-66 90 -99 128 -176 77 -158 101 -306 72 -451 -32 -161 -94 -275 -221 -404
-75 -76 -104 -98 -175 -132 -193 -92 -376 -104 -559 -36 -198 74 -363 248
-439 462 -25 72 -27 88 -26 232 0 85 5 166 10 179 10 23 11 22 53 -28 61 -72
116 -103 200 -109 87 -6 154 15 214 68 90 79 116 215 63 323 -33 68 -56 90
-155 141 l-81 42 99 42 c145 61 197 72 326 68 86 -3 127 -9 190 -30z"/>
<path d="M2908 3743 c-21 -2 -38 -9 -38 -14 0 -6 14 -31 31 -56 147 -213 50
-507 -197 -594 -70 -25 -176 -26 -245 -4 -28 10 -53 15 -56 12 -12 -13 31
-163 68 -236 67 -134 199 -248 338 -292 84 -26 218 -35 307 -20 98 17 235 86
306 153 73 71 129 158 159 250 34 104 35 282 1 379 -85 246 -300 412 -549 423
-48 2 -105 2 -125 -1z"/>
</g>
</svg>
